<svg width="40" height="13" viewBox="0 0 40 13" fill="none" xmlns="http://www.w3.org/2000/svg">
<path d="M39.722 8.768C39.654 8.768 39.592 8.812 39.56 8.904C39.15 10.074 38.596 10.77 38.14 10.77C37.878 10.77 37.772 10.478 37.772 10.02C37.772 8.874 38.458 6.444 38.804 5.336C38.844 5.202 38.87 5.082 38.87 4.98C38.87 4.658 38.694 4.5 38.258 4.5C37.788 4.5 37.282 4.684 36.79 5.546C36.62 4.786 36.106 4.454 35.388 4.454C34.558 4.454 33.756 4.988 33.096 5.854C32.436 6.72 31.66 7.004 31.076 6.864C31.496 5.836 31.652 5.068 31.652 4.498C31.652 3.604 31.21 3.064 30.496 3.064C29.41 3.064 28.784 4.1 28.784 5.19C28.784 6.032 29.166 6.898 30.006 7.318C29.302 8.91 28.274 10.35 27.884 10.35C27.38 10.35 27.232 7.884 27.26 6.12C27.278 5.108 27.362 5.056 27.362 4.75C27.362 4.574 27.248 4.454 26.79 4.454C25.722 4.454 25.392 5.358 25.342 6.396C25.3259 6.79046 25.2641 7.18173 25.158 7.562C24.712 9.154 23.792 10.362 23.192 10.362C22.914 10.362 22.838 10.084 22.838 9.72C22.838 8.574 23.48 7.142 23.48 5.92C23.48 5.022 23.086 4.454 22.344 4.454C21.47 4.454 20.314 5.494 19.22 7.442C19.58 5.95 19.728 4.506 18.662 4.506C18.4307 4.50945 18.2037 4.56844 18 4.678C17.9316 4.70998 17.8744 4.7618 17.8359 4.82672C17.7974 4.89164 17.7793 4.96666 17.784 5.042C17.886 6.63 16.504 10.698 15.194 10.698C14.956 10.698 14.84 10.44 14.84 10.024C14.84 8.876 15.524 6.452 15.868 5.342C15.912 5.198 15.936 5.074 15.936 4.966C15.936 4.662 15.748 4.506 15.322 4.506C14.854 4.506 14.346 4.684 13.856 5.546C13.684 4.786 13.17 4.454 12.452 4.454C11.274 4.454 9.958 5.7 9.38 7.324C8.606 9.492 7.046 11.586 4.946 11.586C3.04 11.586 2.034 10 2.034 7.494C2.034 3.876 4.69 0.92 6.66 0.92C7.602 0.92 8.052 1.52 8.052 2.44C8.052 3.554 7.43 4.072 7.43 4.496C7.43 4.626 7.538 4.754 7.752 4.754C8.608 4.754 9.616 3.748 9.616 2.376C9.616 1.004 8.502 0 6.532 0C3.276 0 0 3.276 0 7.474C0 10.814 1.648 12.828 4.498 12.828C6.442 12.828 8.14 11.316 9.056 9.552C9.16 11.014 9.824 11.778 10.836 11.778C11.736 11.778 12.464 11.242 13.02 10.3C13.234 11.286 13.802 11.768 14.54 11.768C15.386 11.768 16.094 11.232 16.768 10.236C16.758 11.018 16.936 11.754 17.614 11.754C17.934 11.754 18.316 11.68 18.384 11.4C19.098 8.448 20.862 6.038 21.402 6.038C21.562 6.038 21.606 6.192 21.606 6.374C21.606 7.176 21.04 8.82 21.04 9.87C21.04 11.004 21.522 11.754 22.518 11.754C23.622 11.754 24.744 10.402 25.492 8.426C25.726 10.272 26.232 11.762 27.024 11.762C27.996 11.762 29.722 9.716 30.768 7.55C31.178 7.602 31.794 7.588 32.386 7.17C32.134 7.808 31.986 8.506 31.986 9.204C31.986 11.214 32.946 11.778 33.772 11.778C34.67 11.778 35.398 11.242 35.956 10.3C36.14 11.15 36.61 11.766 37.474 11.766C38.826 11.766 40 10.384 40 9.25C40 8.95 39.872 8.768 39.722 8.768ZM11.66 10.664C11.114 10.664 10.9 10.114 10.9 9.294C10.9 7.87 11.874 5.492 12.904 5.492C13.354 5.492 13.524 6.022 13.524 6.67C13.524 8.116 12.598 10.664 11.66 10.664ZM30.362 6.414C30.036 6.026 29.918 5.498 29.918 5.028C29.918 4.448 30.13 3.958 30.384 3.958C30.638 3.958 30.716 4.208 30.716 4.556C30.716 5.138 30.508 5.988 30.362 6.414ZM34.596 10.664C34.05 10.664 33.836 10.032 33.836 9.294C33.836 7.92 34.81 5.492 35.848 5.492C36.298 5.492 36.458 6.018 36.458 6.67C36.458 8.116 35.548 10.664 34.596 10.664Z" fill="white"/>
</svg>
